<svg width="30" height="30" viewBox="0 0 30 30" fill="none" xmlns="http://www.w3.org/2000/svg">
<path class="icon__color-element" d="M24.0375 19.075L20.8626 18.7125C20.4892 18.6687 20.1108 18.71 19.7557 18.8334C19.4007 18.9568 19.0782 19.1591 18.8126 19.425L16.5126 21.725C12.964 19.9203 10.0798 17.036 8.27505 13.4875L10.5876 11.175C11.1251 10.6375 11.3876 9.88751 11.3001 9.12501L10.9376 5.97501C10.8667 5.36523 10.574 4.80281 10.1153 4.39482C9.65665 3.98684 9.06394 3.76178 8.45005 3.76251H6.28755C4.87505 3.76251 3.70005 4.93751 3.78755 6.35001C4.45005 17.025 12.9876 25.55 23.6501 26.2125C25.0626 26.3 26.2375 25.125 26.2375 23.7125V21.55C26.25 20.2875 25.3 19.225 24.0375 19.075Z" fill="black"/>
</svg>
