<svg width="30" height="30" viewBox="0 0 30 30" fill="none" xmlns="http://www.w3.org/2000/svg">
<path class="icon__color-element" d="M23.3864 10.5797C23.5717 10.4164 23.7211 10.2202 23.8262 10.0023C23.9313 9.78446 23.99 9.54915 23.9988 9.30984C24.0077 9.07053 23.9666 8.83192 23.8779 8.60762C23.7892 8.38333 23.6546 8.17774 23.4819 8.0026C23.3091 7.82746 23.1016 7.68619 22.871 7.58687C22.6405 7.48755 22.3916 7.43212 22.1384 7.42373C21.8852 7.41535 21.6328 7.45419 21.3955 7.53803C21.1582 7.62186 20.9407 7.74906 20.7554 7.91235L15.1114 12.8861L9.84932 7.54953C9.49723 7.20867 9.01798 7.0116 8.51412 7.0005C8.01026 6.98939 7.52181 7.16513 7.15329 7.4901C6.78477 7.81508 6.56546 8.26347 6.54228 8.73935C6.5191 9.21523 6.69389 9.68078 7.02925 10.0364L12.2913 15.3711L6.6454 20.3448C6.45356 20.5065 6.29783 20.7027 6.18735 20.922C6.07686 21.1413 6.01386 21.3793 6.00204 21.622C5.99022 21.8646 6.02982 22.107 6.11851 22.335C6.2072 22.563 6.3432 22.772 6.51851 22.9496C6.69383 23.1272 6.90492 23.2699 7.1394 23.3693C7.37388 23.4687 7.62702 23.5229 7.88394 23.5285C8.14086 23.5342 8.39639 23.4913 8.63552 23.4023C8.87464 23.3133 9.09255 23.18 9.27643 23.0104L14.9204 18.0385L20.1825 23.3732C20.3524 23.5579 20.5599 23.7083 20.7926 23.8156C21.0254 23.9228 21.2786 23.9847 21.5371 23.9975C21.7957 24.0103 22.0543 23.9738 22.2977 23.8901C22.541 23.8064 22.764 23.6772 22.9534 23.5104C23.1427 23.3435 23.2946 23.1422 23.4 22.9187C23.5054 22.6951 23.562 22.4538 23.5666 22.2091C23.5712 21.9644 23.5236 21.7213 23.4267 21.4944C23.3298 21.2675 23.1856 21.0613 23.0025 20.8881L17.7424 15.5534L23.3864 10.5797Z" fill="black"/>
</svg>
