<?xml version="1.0" encoding="utf-8"?><svg xmlns="http://www.w3.org/2000/svg" xmlns:xlink="http://www.w3.org/1999/xlink"><symbol viewBox="0 0 30 30" id="icon-burger"><path fill="#000" fill-rule="evenodd" d="M4.5 7.5A1.5 1.5 0 016 6h18a1.5 1.5 0 010 3H6a1.5 1.5 0 01-1.5-1.5zm0 7.5A1.5 1.5 0 016 13.5h18a1.5 1.5 0 110 3H6A1.5 1.5 0 014.5 15zm0 7.5A1.5 1.5 0 016 21h9a1.5 1.5 0 110 3H6a1.5 1.5 0 01-1.5-1.5z" class="icon__color-element" clip-rule="evenodd"/></symbol><symbol viewBox="0 0 30 30" id="icon-close"><path fill="#000" d="M23.386 10.58a1.83 1.83 0 00.44-.578 1.74 1.74 0 00-.344-2 1.93 1.93 0 00-.611-.415 2.022 2.022 0 00-2.116.325l-5.644 4.974L9.85 7.55A1.983 1.983 0 008.514 7a1.993 1.993 0 00-1.36.49 1.783 1.783 0 00-.612 1.25c-.023.475.152.94.487 1.296l5.262 5.335-5.646 4.974a1.837 1.837 0 00-.458.577 1.743 1.743 0 00.332 2.028c.175.177.386.32.62.42a2.022 2.022 0 002.137-.36l5.644-4.972 5.263 5.335c.17.185.377.335.61.443a2.02 2.02 0 002.16-.306c.19-.167.342-.368.447-.591a1.74 1.74 0 00.027-1.425 1.819 1.819 0 00-.424-.606l-5.26-5.335 5.643-4.973z" class="icon__color-element"/></symbol><symbol viewBox="0 0 30 30" id="icon-phone"><path fill="#000" d="M24.038 19.075l-3.175-.363a2.489 2.489 0 00-2.05.713l-2.3 2.3a18.806 18.806 0 01-8.238-8.238l2.313-2.312c.537-.538.8-1.287.712-2.05l-.362-3.15A2.502 2.502 0 008.45 3.763H6.288c-1.413 0-2.588 1.175-2.5 2.587.662 10.675 9.2 19.2 19.862 19.862 1.413.088 2.588-1.087 2.588-2.5V21.55a2.477 2.477 0 00-2.2-2.475z" class="icon__color-element"/></symbol></svg>