<svg xmlns="http://www.w3.org/2000/svg" width="30" height="30" fill="none" viewBox="0 0 30 30"><path fill="#000" d="M23.386 10.58a1.83 1.83 0 00.44-.578 1.74 1.74 0 00-.344-2 1.93 1.93 0 00-.611-.415 2.022 2.022 0 00-2.116.325l-5.644 4.974L9.85 7.55A1.983 1.983 0 008.514 7a1.993 1.993 0 00-1.36.49 1.783 1.783 0 00-.612 1.25c-.023.475.152.94.487 1.296l5.262 5.335-5.646 4.974a1.837 1.837 0 00-.458.577 1.743 1.743 0 00.332 2.028c.175.177.386.32.62.42a2.022 2.022 0 002.137-.36l5.644-4.972 5.263 5.335c.17.185.377.335.61.443a2.02 2.02 0 002.16-.306c.19-.167.342-.368.447-.591a1.74 1.74 0 00.027-1.425 1.819 1.819 0 00-.424-.606l-5.26-5.335 5.643-4.973z" class="icon__color-element"/></svg>